ModelForces
version=1
nRows=4
nColumns=94
inDegrees=yes

This file contains the forces exerted on a model during a simulation.

A force is a generalized force, meaning that it can be either a force (N) or a torque (Nm).

Units are S.I. units (second, meters, Newtons, ...)
Angles are in degrees.

endheader 
time	addbrev_l	addlong_l	addmagDist_l	addmagIsch_l	addmagMid_l	addmagProx_l	bflh_l	bfsh_l	edl_l	ehl_l	fdl_l	fhl_l	gaslat_l	gasmed_l	glmax1_l	glmax2_l	glmax3_l	glmed1_l	glmed2_l	glmed3_l	glmin1_l	glmin2_l	glmin3_l	grac_l	iliacus_l	perbrev_l	perlong_l	piri_l	psoas_l	recfem_l	sart_l	semimem_l	semiten_l	soleus_l	tfl_l	tibant_l	tibpost_l	vasint_l	vaslat_l	vasmed_l	addbrev_r	addlong_r	addmagDist_r	addmagIsch_r	addmagMid_r	addmagProx_r	bflh_r	bfsh_r	edl_r	ehl_r	fdl_r	fhl_r	gaslat_r	gasmed_r	glmax1_r	glmax2_r	glmax3_r	glmed1_r	glmed2_r	glmed3_r	glmin1_r	glmin2_r	glmin3_r	grac_r	iliacus_r	perbrev_r	perlong_r	piri_r	psoas_r	recfem_r	sart_r	semimem_r	semiten_r	soleus_r	tfl_r	tibant_r	tibpost_r	vasint_r	vaslat_r	vasmed_r	lumbar_extension	lumbar_bending	lumbar_rotation	arm_flex_l	arm_add_l	arm_rot_l	arm_flex_r	arm_add_r	arm_rot_r	elbow_flex_l	elbow_flex_r	pro_sup_l	pro_sup_r	
          2.86000000	          3.62517675	         58.99988627	          3.42588254	          6.23152991	          1.05188591	          2.09061743	         10.20278345	        127.23702595	        223.74788431	         36.04205710	          8.24476515	         24.67728932	         94.25821181	        224.42830788	         16.88290517	         61.87820011	         11.63477766	       1274.20322592	        316.77858066	         15.97873358	        311.98330344	        222.45313335	         61.03909740	          1.88662383	        265.26108340	         88.65409816	        254.62388525	         17.44587287	        168.92215200	         75.39681120	         60.62612529	        179.64808085	         43.86635477	        195.73700533	        350.30262613	        463.68248185	         71.08124253	         22.98416006	        114.46310836	         42.11982772	          8.77186573	         13.84241710	          4.08584893	          3.50968864	          5.24791331	          5.03607270	        208.67751736	        283.50654976	        182.23456332	         29.50525264	          4.36344317	          4.56244423	        129.23671620	        378.83946029	         86.63872206	        279.57004409	          7.07795992	        893.13746661	        484.61437320	        413.76706639	        147.03883824	        156.51322067	        198.61974975	          8.48902944	        197.70364343	         57.86628632	        170.22534296	        742.28878090	        208.77174725	         79.82671738	        106.99014209	       1131.14082440	         54.37098630	         31.40852516	        165.39029276	        330.92042992	          5.57675787	          5.06112226	         15.93706821	          8.84995675	        102.99514884	        -49.84035793	        -15.30404256	        -47.61628486	         59.08100787	         -9.98926656	         59.58517094	        109.48579502	        105.50339991	         -0.97229206	       -110.49800253	         -1.60611162	          3.24655326	
          2.87000000	          3.75290647	         58.21663082	          3.97233834	          5.55302110	          1.50616749	          2.58757410	          8.15713195	        100.80811057	        248.53309575	         32.19500007	          7.72734462	         23.29085064	         87.02138319	        205.52125214	         14.24681522	         51.73614216	         10.35743551	       1213.05380726	        255.73920073	         13.14568023	        267.25161885	        173.81249435	         47.68923992	          1.71310852	        140.10899455	         70.40054734	        248.10354138	         15.56344004	        144.68578162	         61.34592256	         49.72228751	        128.07752443	         34.89683772	        215.41736196	        356.22732911	        452.60467249	         65.89613027	         23.88474520	        101.42497799	         37.53759103	          9.09004180	         15.98447918	          3.78158828	          3.12025223	          4.61601070	          4.75600495	         88.29855482	        236.67096518	        190.56177005	         32.14965040	          4.56612587	          4.48696897	        129.31646784	        398.36910420	         73.42219672	        205.78816991	          5.97170303	        921.60698587	        416.25514542	        348.96179345	        164.41961739	        158.70578961	        148.83560303	          7.15609243	        231.76007307	         62.38930234	        180.64043711	        709.33262722	        182.43637867	         80.45535490	        104.42113787	       1111.47415749	         41.70937491	         25.40277472	        159.37922680	        368.62853634	          6.08958407	          5.23233489	         16.07503274	          8.96912954	        104.69973376	        -31.81896887	        -10.36852060	          1.44538042	         81.99885110	        -45.48516574	         82.46643671	         76.47795211	         60.11831767	         34.00768650	        -44.68760256	         -9.42035894	          0.02314287	
          2.88000000	          4.09415328	         58.62926507	          4.48825437	          5.23087630	          1.98907235	          3.05122218	          6.39995360	         79.67024023	        266.92114723	         14.32365096	          6.25765438	         19.92858037	         78.18021387	        189.12304943	         11.97987233	         43.24353599	          9.19351354	       1122.18528671	        204.32163099	         10.63373366	        254.43720622	        134.22898654	         36.52996723	          1.54194569	        280.40155150	         73.08059148	        256.69705734	         15.26304404	        123.40021835	         57.03626255	         40.72623874	         83.69649021	         27.73954971	        216.77318217	        344.77662308	        458.87296316	         56.31062694	         24.96062580	         89.96414856	         35.40212514	          8.33296930	         16.13090781	          3.76462041	          3.09387956	          4.03021914	          4.37764210	        126.48552964	        190.19867930	        195.45905769	         32.63229244	          3.35599951	          4.88795083	        117.24841336	        386.09284986	         58.48736344	        159.07785772	          5.59825616	        905.00978228	        344.31139046	        147.51504781	        141.48787755	        141.38287275	        104.79844572	          5.89293678	        331.05876722	         55.49323582	        186.71948939	        593.53067989	        152.54412067	         85.50257705	        141.23762288	        622.19410850	         32.00730320	         26.36515764	        164.32002815	        397.88023639	          7.47735492	          6.29399819	         18.87669675	         10.32499758	         60.10002593	         -6.72952616	         30.74913988	         37.86634912	         98.52034138	        -34.42681940	         99.35124909	         82.71126434	          6.96027438	         -5.82315354	          4.45244750	         -5.94503010	         -1.94952342	
          2.89000000	          4.67020188	         53.72680916	          4.96830764	          5.82591626	          2.36257516	          3.25359018	          5.01099115	         62.45678027	        276.45637992	         23.54454369	          6.88347250	         21.23444213	         74.95124403	        181.06703160	          9.99335825	         36.41316573	          8.15180619	       1079.90508939	        163.94922820	          9.77283537	        200.95572959	        104.82432042	         27.38066875	          1.55213601	        174.81743082	         80.78155699	        269.93161473	         13.71239508	        102.37999899	          0.03728844	         32.98493862	         58.01645799	         22.69806950	        255.83373523	        312.83157328	        485.99972336	         55.47893070	         26.32074135	         79.51018290	         37.23654550	          6.72716234	         13.74541358	          4.17329851	          3.58192341	          3.55618773	          3.84028246	         64.39136368	        203.86278388	        190.55910967	         28.99999261	          4.81520624	          6.64577686	        133.15996499	        395.58089039	         51.83116619	        140.62977568	          6.40783304	        845.48791662	        338.11308059	        449.02302320	        113.92990029	        138.80600730	         88.68551215	          4.67466100	        252.02907406	         41.74477513	        181.05918224	        467.58620654	        121.15067556	         85.60494693	        130.90809073	        636.84642227	         25.24047518	         35.76373667	        170.23121392	        407.12905614	         12.09707241	          8.83733499	         26.19605184	         13.71550652	         70.99387802	         13.43593585	         40.09739291	         -9.15155236	         36.38105081	         14.45296905	        111.65524714	         24.79195483	        -32.52897938	        -42.81676035	         41.15317540	          3.50552772	         -2.43241907	
